<svg width="318" height="383" viewBox="0 0 318 383" fill="none" xmlns="http://www.w3.org/2000/svg">
<path d="M11 132L77.5 11H307V372H11V132Z" fill="white"/>
<path d="M11 132L77.5 11H307V372H11V132Z" fill="white"/>
<path d="M77.4688 11L104 132.5H11M77.4688 11H307V132.5V372H156.75M77.4688 11L44.2344 71.75L11 132.5M11 132.5V372H156.75M156.75 372V310.5M156.75 310.5L130.769 265.5C126.92 258.833 131.731 250.5 139.429 250.5H174.071C181.769 250.5 186.58 258.833 182.731 265.5L156.75 310.5Z" stroke="#3097AD" stroke-width="22"/>
<circle cx="111.5" cy="204.5" r="12.5" fill="#3097AD"/>
<path d="M207.5 205C207.5 211.904 201.904 217.5 195 217.5C188.096 217.5 182.5 211.904 182.5 205C182.5 198.096 188.096 192.5 195 192.5C201.904 192.5 207.5 198.096 207.5 205Z" fill="#3097AD"/>
</svg>
